<?xml version="1.0" encoding="UTF-8" standalone="no"?><!DOCTYPE svg PUBLIC "-//W3C//DTD SVG 1.1//EN" "http://www.w3.org/Graphics/SVG/1.1/DTD/svg11.dtd"><svg width="100%" height="100%" viewBox="0 0 1949 861" version="1.1" xmlns="http://www.w3.org/2000/svg" xmlns:xlink="http://www.w3.org/1999/xlink" xml:space="preserve" xmlns:serif="http://www.serif.com/" style="fill-rule:evenodd;clip-rule:evenodd;stroke-linecap:round;stroke-linejoin:round;stroke-miterlimit:1.5;"><g><path d="M66.8,860.922c-12.533,-0 -23.867,-2.533 -34,-7.6c-10.133,-5.067 -18.133,-11.933 -24,-20.6c-5.867,-8.667 -8.8,-18.333 -8.8,-29c-0,-14.4 3.533,-25.667 10.6,-33.8c7.067,-8.133 19.2,-13.867 36.4,-17.2c17.2,-3.333 40.867,-5 71,-5l16.4,-0l-0,14.8l-15.6,-0c-26.4,-0 -46.867,1.133 -61.4,3.4c-14.533,2.267 -24.667,6.267 -30.4,12c-5.733,5.733 -8.6,13.8 -8.6,24.2c-0,12.8 4.467,23.267 13.4,31.4c8.933,8.133 21,12.2 36.2,12.2c12.267,-0 23,-3 32.2,-9c9.2,-6 16.467,-14.133 21.8,-24.4c5.333,-10.267 8,-21.933 8,-35l-0,-45.6c-0,-19.2 -3.733,-33.2 -11.2,-42c-7.467,-8.8 -19.467,-13.2 -36,-13.2c-10.667,-0 -20.867,1.467 -30.6,4.4c-9.733,2.933 -19.933,7.467 -30.6,13.6c-2.4,1.333 -4.467,1.867 -6.2,1.6c-1.733,-0.267 -3.133,-1 -4.2,-2.2c-1.067,-1.2 -1.8,-2.667 -2.2,-4.4c-0.4,-1.733 -0.267,-3.4 0.4,-5c0.667,-1.6 1.933,-2.933 3.8,-4c10.933,-6.667 22.267,-11.6 34,-14.8c11.733,-3.2 23.333,-4.8 34.8,-4.8c14.667,-0 26.8,2.533 36.4,7.6c9.6,5.067 16.733,12.8 21.4,23.2c4.667,10.4 7,23.733 7,40l-0,119.6c-0,2.667 -0.667,4.8 -2,6.4c-1.333,1.6 -3.333,2.4 -6,2.4c-2.667,-0 -4.733,-0.8 -6.2,-2.4c-1.467,-1.6 -2.2,-3.733 -2.2,-6.4l-0,-42l4.4,-0c-2.667,10.667 -7.2,19.867 -13.6,27.6c-6.4,7.733 -14.2,13.667 -23.4,17.8c-9.2,4.133 -19.533,6.2 -31,6.2Z" style="fill-rule:nonzero;"/><path d="M266.8,860.922c-16.8,-0 -29.8,-5.4 -39,-16.2c-9.2,-10.8 -13.8,-25.933 -13.8,-45.4l-0,-217.2c-0,-2.933 0.733,-5.133 2.2,-6.6c1.467,-1.467 3.533,-2.2 6.2,-2.2c2.667,-0 4.733,0.733 6.2,2.2c1.467,1.467 2.2,3.667 2.2,6.6l0,214.4c0,16.267 3.2,28.467 9.6,36.6c6.4,8.133 15.733,12.2 28,12.2c2.667,-0 4.933,-0.133 6.8,-0.4c1.867,-0.267 3.733,-0.4 5.6,-0.4c2.133,-0 3.8,0.4 5,1.2c1.2,0.8 1.8,2.4 1.8,4.8c0,2.933 -0.8,5.067 -2.4,6.4c-1.6,1.333 -4.267,2.4 -8,3.2c-1.867,0.267 -3.667,0.467 -5.4,0.6c-1.733,0.133 -3.4,0.2 -5,0.2Z" style="fill-rule:nonzero;"/><path d="M332.4,858.922c-2.667,-0 -4.733,-0.8 -6.2,-2.4c-1.467,-1.6 -2.2,-3.733 -2.2,-6.4l-0,-178.4c-0,-2.933 0.733,-5.133 2.2,-6.6c1.467,-1.467 3.533,-2.2 6.2,-2.2c2.667,-0 4.733,0.733 6.2,2.2c1.467,1.467 2.2,3.667 2.2,6.6l-0,178.4c-0,2.667 -0.667,4.8 -2,6.4c-1.333,1.6 -3.467,2.4 -6.4,2.4Zm-0,-247.6c-4.267,-0 -7.667,-1.267 -10.2,-3.8c-2.533,-2.533 -3.8,-5.933 -3.8,-10.2c-0,-4.533 1.267,-7.933 3.8,-10.2c2.533,-2.267 5.933,-3.4 10.2,-3.4c4.533,-0 8,1.133 10.4,3.4c2.4,2.267 3.6,5.667 3.6,10.2c-0,4.267 -1.2,7.667 -3.6,10.2c-2.4,2.533 -5.867,3.8 -10.4,3.8Z" style="fill-rule:nonzero;"/><path d="M475.6,860.122c-2.933,-0 -5.467,-0.867 -7.6,-2.6c-2.133,-1.733 -4,-4.333 -5.6,-7.8l-74.4,-174c-1.067,-2.667 -1.467,-5 -1.2,-7c0.267,-2 1.133,-3.667 2.6,-5c1.467,-1.333 3.533,-2 6.2,-2c2.4,-0 4.2,0.6 5.4,1.8c1.2,1.2 2.333,2.867 3.4,5l76,183.2l-9.6,-0l76.4,-183.2c1.067,-2.133 2.2,-3.8 3.4,-5c1.2,-1.2 3.133,-1.8 5.8,-1.8c2.667,-0 4.6,0.667 5.8,2c1.2,1.333 1.867,3 2,5c0.133,2 -0.333,4.2 -1.4,6.6l-74,174.4c-1.333,3.467 -3.133,6.067 -5.4,7.8c-2.267,1.733 -4.867,2.6 -7.8,2.6Z" style="fill-rule:nonzero;"/><path d="M618.8,858.922c-2.667,-0 -4.733,-0.8 -6.2,-2.4c-1.467,-1.6 -2.2,-3.733 -2.2,-6.4l0,-178.4c0,-2.933 0.733,-5.133 2.2,-6.6c1.467,-1.467 3.533,-2.2 6.2,-2.2c2.667,-0 4.733,0.733 6.2,2.2c1.467,1.467 2.2,3.667 2.2,6.6l-0,178.4c-0,2.667 -0.667,4.8 -2,6.4c-1.333,1.6 -3.467,2.4 -6.4,2.4Zm-0,-247.6c-4.267,-0 -7.667,-1.267 -10.2,-3.8c-2.533,-2.533 -3.8,-5.933 -3.8,-10.2c-0,-4.533 1.267,-7.933 3.8,-10.2c2.533,-2.267 5.933,-3.4 10.2,-3.4c4.533,-0 8,1.133 10.4,3.4c2.4,2.267 3.6,5.667 3.6,10.2c-0,4.267 -1.2,7.667 -3.6,10.2c-2.4,2.533 -5.867,3.8 -10.4,3.8Z" style="fill-rule:nonzero;"/><path d="M753.6,860.922c-12.533,-0 -23.867,-2.533 -34,-7.6c-10.133,-5.067 -18.133,-11.933 -24,-20.6c-5.867,-8.667 -8.8,-18.333 -8.8,-29c-0,-14.4 3.533,-25.667 10.6,-33.8c7.067,-8.133 19.2,-13.867 36.4,-17.2c17.2,-3.333 40.867,-5 71,-5l16.4,-0l-0,14.8l-15.6,-0c-26.4,-0 -46.867,1.133 -61.4,3.4c-14.533,2.267 -24.667,6.267 -30.4,12c-5.733,5.733 -8.6,13.8 -8.6,24.2c0,12.8 4.467,23.267 13.4,31.4c8.933,8.133 21,12.2 36.2,12.2c12.267,-0 23,-3 32.2,-9c9.2,-6 16.467,-14.133 21.8,-24.4c5.333,-10.267 8,-21.933 8,-35l-0,-45.6c-0,-19.2 -3.733,-33.2 -11.2,-42c-7.467,-8.8 -19.467,-13.2 -36,-13.2c-10.667,-0 -20.867,1.467 -30.6,4.4c-9.733,2.933 -19.933,7.467 -30.6,13.6c-2.4,1.333 -4.467,1.867 -6.2,1.6c-1.733,-0.267 -3.133,-1 -4.2,-2.2c-1.067,-1.2 -1.8,-2.667 -2.2,-4.4c-0.4,-1.733 -0.267,-3.4 0.4,-5c0.667,-1.6 1.933,-2.933 3.8,-4c10.933,-6.667 22.267,-11.6 34,-14.8c11.733,-3.2 23.333,-4.8 34.8,-4.8c14.667,-0 26.8,2.533 36.4,7.6c9.6,5.067 16.733,12.8 21.4,23.2c4.667,10.4 7,23.733 7,40l0,119.6c0,2.667 -0.667,4.8 -2,6.4c-1.333,1.6 -3.333,2.4 -6,2.4c-2.667,-0 -4.733,-0.8 -6.2,-2.4c-1.467,-1.6 -2.2,-3.733 -2.2,-6.4l0,-42l4.4,-0c-2.667,10.667 -7.2,19.867 -13.6,27.6c-6.4,7.733 -14.2,13.667 -23.4,17.8c-9.2,4.133 -19.533,6.2 -31,6.2Z" style="fill-rule:nonzero;"/><path d="M910,860.122c-2.667,-0 -4.733,-0.8 -6.2,-2.4c-1.467,-1.6 -2.2,-3.733 -2.2,-6.4l0,-180.8c0,-2.933 0.733,-5.133 2.2,-6.6c1.467,-1.467 3.533,-2.2 6.2,-2.2c2.667,-0 4.667,0.733 6,2.2c1.333,1.467 2,3.667 2,6.6l0,40.8l-4.4,-0c4.8,-16.533 12.933,-29.067 24.4,-37.6c11.467,-8.533 25.333,-12.8 41.6,-12.8c17.333,-0 31.133,4.2 41.4,12.6c10.267,8.4 16.867,21.133 19.8,38.2l-6,-0c4.267,-15.467 12.6,-27.8 25,-37c12.4,-9.2 27.267,-13.8 44.6,-13.8c14.133,-0 25.867,2.733 35.2,8.2c9.333,5.467 16.4,13.6 21.2,24.4c4.8,10.8 7.2,24.467 7.2,41l0,116.8c0,2.667 -0.733,4.8 -2.2,6.4c-1.467,1.6 -3.533,2.4 -6.2,2.4c-2.667,-0 -4.733,-0.8 -6.2,-2.4c-1.467,-1.6 -2.2,-3.733 -2.2,-6.4l0,-115.2c0,-20.533 -3.667,-35.6 -11,-45.2c-7.333,-9.6 -19.533,-14.4 -36.6,-14.4c-18.4,-0 -33.067,6.333 -44,19c-10.933,12.667 -16.4,29.667 -16.4,51l0,104.8c0,2.667 -0.733,4.8 -2.2,6.4c-1.467,1.6 -3.533,2.4 -6.2,2.4c-2.667,-0 -4.733,-0.8 -6.2,-2.4c-1.467,-1.6 -2.2,-3.733 -2.2,-6.4l0,-115.2c0,-20.533 -3.667,-35.6 -11,-45.2c-7.333,-9.6 -19.533,-14.4 -36.6,-14.4c-18.4,-0 -33.067,6.333 -44,19c-10.933,12.667 -16.4,29.667 -16.4,51l0,104.8c0,5.867 -2.8,8.8 -8.4,8.8Z" style="fill:#45ada8;fill-rule:nonzero;"/><path d="M1316.4,860.922c-19.2,-0 -35.733,-4 -49.6,-12c-13.867,-8 -24.6,-19.4 -32.2,-34.2c-7.6,-14.8 -11.4,-32.467 -11.4,-53c0,-20.267 3.8,-37.933 11.4,-53c7.6,-15.067 18.133,-26.8 31.6,-35.2c13.467,-8.4 29,-12.6 46.6,-12.6c12.533,-0 23.667,2.133 33.4,6.4c9.733,4.267 18,10.4 24.8,18.4c6.8,8 12,17.733 15.6,29.2c3.6,11.467 5.4,24.4 5.4,38.8c0,3.467 -0.733,6.067 -2.2,7.8c-1.467,1.733 -3.667,2.6 -6.6,2.6l-149.2,-0l0,-14.8l149.2,-0l-6.8,4.8c0,-16.267 -2.4,-30.2 -7.2,-41.8c-4.8,-11.6 -11.933,-20.533 -21.4,-26.8c-9.467,-6.267 -21.267,-9.4 -35.4,-9.4c-15.467,-0 -28.6,3.667 -39.4,11c-10.8,7.333 -18.933,17.267 -24.4,29.8c-5.467,12.533 -8.2,26.8 -8.2,42.8l0,2c0,26.667 6.6,47.267 19.8,61.8c13.2,14.533 31.667,21.8 55.4,21.8c10.667,-0 20.667,-1.4 30,-4.2c9.333,-2.8 18.533,-7.8 27.6,-15c1.867,-1.6 3.8,-2.467 5.8,-2.6c2,-0.133 3.733,0.267 5.2,1.2c1.467,0.933 2.533,2.133 3.2,3.6c0.667,1.467 0.733,3.133 0.2,5c-0.533,1.867 -1.867,3.6 -4,5.2c-8.267,6.933 -18.4,12.4 -30.4,16.4c-12,4 -24.267,6 -36.8,6Z" style="fill:#45ada8;fill-rule:nonzero;"/><path d="M1453.6,860.122c-2.667,-0 -4.733,-0.8 -6.2,-2.4c-1.467,-1.6 -2.2,-3.733 -2.2,-6.4l0,-180.8c0,-2.933 0.733,-5.133 2.2,-6.6c1.467,-1.467 3.533,-2.2 6.2,-2.2c2.667,-0 4.667,0.733 6,2.2c1.333,1.467 2,3.667 2,6.6l0,40.8l-4.4,-0c5.333,-16.8 14.533,-29.4 27.6,-37.8c13.067,-8.4 28.133,-12.6 45.2,-12.6c15.467,-0 28.333,2.667 38.6,8c10.267,5.333 17.933,13.467 23,24.4c5.067,10.933 7.6,24.667 7.6,41.2l0,116.8c0,2.667 -0.733,4.8 -2.2,6.4c-1.467,1.6 -3.533,2.4 -6.2,2.4c-2.667,-0 -4.733,-0.8 -6.2,-2.4c-1.467,-1.6 -2.2,-3.733 -2.2,-6.4l0,-115.2c0,-20.533 -4.133,-35.6 -12.4,-45.2c-8.267,-9.6 -21.6,-14.4 -40,-14.4c-20.533,-0 -37,6.333 -49.4,19c-12.4,12.667 -18.6,29.667 -18.6,51l0,104.8c0,5.867 -2.8,8.8 -8.4,8.8Z" style="fill:#45ada8;fill-rule:nonzero;"/><path d="M1734.4,860.922c-13.333,-0 -24.533,-2.6 -33.6,-7.8c-9.067,-5.2 -15.867,-12.667 -20.4,-22.4c-4.533,-9.733 -6.8,-21.533 -6.8,-35.4l0,-116.8l-32.4,-0c-2.667,-0 -4.8,-0.667 -6.4,-2c-1.6,-1.333 -2.4,-3.067 -2.4,-5.2c0,-2.133 0.8,-3.867 2.4,-5.2c1.6,-1.333 3.733,-2 6.4,-2l32.4,-0l0,-54c0,-2.933 0.733,-5.133 2.2,-6.6c1.467,-1.467 3.533,-2.2 6.2,-2.2c2.667,-0 4.733,0.733 6.2,2.2c1.467,1.467 2.2,3.667 2.2,6.6l0,54l57.2,-0c2.933,-0 5.133,0.667 6.6,2c1.467,1.333 2.2,3.067 2.2,5.2c0,2.133 -0.733,3.867 -2.2,5.2c-1.467,1.333 -3.667,2 -6.6,2l-57.2,-0l0,113.2c0,17.333 3.467,30.6 10.4,39.8c6.933,9.2 18.533,13.8 34.8,13.8c5.6,-0 10.2,-0.6 13.8,-1.8c3.6,-1.2 6.6,-1.8 9,-1.8c1.6,-0 3,0.667 4.2,2c1.2,1.333 1.8,3.2 1.8,5.6c0,1.333 -0.333,2.733 -1,4.2c-0.667,1.467 -1.933,2.467 -3.8,3c-2.667,1.067 -6.467,2.067 -11.4,3c-4.933,0.933 -9.533,1.4 -13.8,1.4Z" style="fill:#45ada8;fill-rule:nonzero;"/><path d="M1872.8,860.922c-19.2,-0 -35.733,-4 -49.6,-12c-13.867,-8 -24.6,-19.4 -32.2,-34.2c-7.6,-14.8 -11.4,-32.467 -11.4,-53c-0,-20.267 3.8,-37.933 11.4,-53c7.6,-15.067 18.133,-26.8 31.6,-35.2c13.467,-8.4 29,-12.6 46.6,-12.6c12.533,-0 23.667,2.133 33.4,6.4c9.733,4.267 18,10.4 24.8,18.4c6.8,8 12,17.733 15.6,29.2c3.6,11.467 5.4,24.4 5.4,38.8c0,3.467 -0.733,6.067 -2.2,7.8c-1.467,1.733 -3.667,2.6 -6.6,2.6l-149.2,-0l0,-14.8l149.2,-0l-6.8,4.8c0,-16.267 -2.4,-30.2 -7.2,-41.8c-4.8,-11.6 -11.933,-20.533 -21.4,-26.8c-9.467,-6.267 -21.267,-9.4 -35.4,-9.4c-15.467,-0 -28.6,3.667 -39.4,11c-10.8,7.333 -18.933,17.267 -24.4,29.8c-5.467,12.533 -8.2,26.8 -8.2,42.8l0,2c0,26.667 6.6,47.267 19.8,61.8c13.2,14.533 31.667,21.8 55.4,21.8c10.667,-0 20.667,-1.4 30,-4.2c9.333,-2.8 18.533,-7.8 27.6,-15c1.867,-1.6 3.8,-2.467 5.8,-2.6c2,-0.133 3.733,0.267 5.2,1.2c1.467,0.933 2.533,2.133 3.2,3.6c0.667,1.467 0.733,3.133 0.2,5c-0.533,1.867 -1.867,3.6 -4,5.2c-8.267,6.933 -18.4,12.4 -30.4,16.4c-12,4 -24.267,6 -36.8,6Z" style="fill:#45ada8;fill-rule:nonzero;"/></g><g><path d="M1138.2,130.318c66.141,-16.817 114.508,32.257 117.713,77.471c3.205,45.214 -38.753,86.568 -104.895,103.384c-48.398,13.839 -123.396,0.688 -180.65,-15.44c-15.296,-57.483 -27.358,-132.664 -12.818,-180.855c17.775,-65.891 59.733,-107.244 104.895,-103.384c45.163,3.86 93.53,52.934 75.755,118.824Z" style="fill:#e5fcc2;stroke:#e5fcc2;stroke-width:8.33px;"/><path d="M809.538,454.249c-17.775,65.89 30.592,114.964 75.754,118.824c45.164,3.861 87.122,-37.493 104.895,-103.384c14.54,-48.191 2.479,-123.373 -12.817,-180.855c-57.254,-16.128 -132.253,-29.279 -180.65,-15.44c-66.141,16.817 -108.099,58.17 -104.895,103.384c3.205,45.214 51.571,94.287 117.713,77.471Z" style="fill:#547980;stroke:#547980;stroke-width:8.33px;"/><path d="M1137.67,455.438c16.817,66.141 -32.257,114.508 -77.47,117.712c-45.215,3.206 -86.569,-38.752 -103.384,-104.895c-13.84,-48.397 -0.689,-123.395 15.44,-180.65c57.482,-15.296 132.663,-27.357 180.855,-12.817c65.89,17.775 107.244,59.733 103.384,104.895c-3.861,45.163 -52.934,93.529 -118.825,75.755Z" style="fill:#45ada8;stroke:#45ada8;stroke-width:8.33px;"/><path d="M810.892,122.051c-65.89,-17.775 -114.964,30.592 -118.824,75.754c-3.861,45.164 37.493,87.122 103.384,104.895c48.191,14.54 123.373,2.479 180.855,-12.817c16.128,-57.254 29.279,-132.253 15.44,-180.65c-16.817,-66.141 -58.17,-108.099 -103.384,-104.895c-45.214,3.205 -94.288,51.571 -77.471,117.713Z" style="fill:#9de0ad;stroke:#9de0ad;stroke-width:8.33px;"/></g></svg>